<?xml version="1.0" encoding="UTF-8" standalone="no"?>
<svg
   viewBox="0 0 64 64"
   version="1.1"
   id="svg3"
   sodipodi:docname="favicon.svg"
   inkscape:version="1.4.1 (93de688d07, 2025-03-30)"
   xmlns:inkscape="http://www.inkscape.org/namespaces/inkscape"
   xmlns:sodipodi="http://sodipodi.sourceforge.net/DTD/sodipodi-0.dtd"
   xmlns="http://www.w3.org/2000/svg"
   xmlns:svg="http://www.w3.org/2000/svg">
  <defs
     id="defs3" />
  <sodipodi:namedview
     id="namedview3"
     pagecolor="#505050"
     bordercolor="#eeeeee"
     borderopacity="1"
     inkscape:showpageshadow="0"
     inkscape:pageopacity="0"
     inkscape:pagecheckerboard="0"
     inkscape:deskcolor="#505050"
     inkscape:zoom="8.3124997"
     inkscape:cx="28.57143"
     inkscape:cy="30.977445"
     inkscape:window-width="1536"
     inkscape:window-height="793"
     inkscape:window-x="0"
     inkscape:window-y="0"
     inkscape:window-maximized="1"
     inkscape:current-layer="svg3" />
  <path
     fill="#ffffff"
     stroke="#000000"
     stroke-width="2.03093"
     stroke-miterlimit="10"
     d="m 62.968825,7.9076 v 48.183453 a 6.8777723,6.877772 0 0 1 -6.876426,6.87777 H 7.9089443 a 6.8777723,6.877772 0 0 1 -6.87777,-6.876424 V 7.9076 A 6.8777723,6.877772 0 0 1 7.9075973,1.0311743 H 56.092399 A 6.8777723,6.877772 0 0 1 62.968825,7.9076 Z M 46.910816,17.089183 H 31.999999 v 14.910816 h 14.910817 z"
     id="path1" />
  <path
     d="M 46.910816,17.089183 H 31.999999 v 14.910816 h 14.910817 z"
     id="path2"
     style="stroke-width:1.34646" />
  <path
     fill="none"
     stroke="#000000"
     stroke-width="2.06235"
     stroke-miterlimit="10"
     d="M 46.910816,62.968823 V 31.999999 m 0,-14.910815 V 1.0311743 M 31.999999,62.968823 V 31.999999 m 0,-14.910815 V 1.0311743 m -16.058011,0 V 62.968823 M 46.910816,31.999999 h 16.058009 m -30.968826,0 H 1.0311743 M 62.968825,46.910815 H 1.0311743 M 62.968825,15.941991 H 1.0311743"
     id="path3" />
</svg>
