<?xml version="1.0" encoding="UTF-8" standalone="no"?>
<svg
   viewBox="0 0 64 64"
   version="1.1"
   id="svg3"
   sodipodi:docname="favicon.svg"
   inkscape:version="1.4.1 (93de688d07, 2025-03-30)"
   xmlns:inkscape="http://www.inkscape.org/namespaces/inkscape"
   xmlns:sodipodi="http://sodipodi.sourceforge.net/DTD/sodipodi-0.dtd"
   xmlns="http://www.w3.org/2000/svg"
   xmlns:svg="http://www.w3.org/2000/svg">
  <defs
     id="defs3" />
  <sodipodi:namedview
     id="namedview3"
     pagecolor="#505050"
     bordercolor="#eeeeee"
     borderopacity="1"
     inkscape:showpageshadow="0"
     inkscape:pageopacity="0"
     inkscape:pagecheckerboard="0"
     inkscape:deskcolor="#505050"
     inkscape:zoom="8.3124997"
     inkscape:cx="32"
     inkscape:cy="32"
     inkscape:window-width="1536"
     inkscape:window-height="793"
     inkscape:window-x="0"
     inkscape:window-y="0"
     inkscape:window-maximized="1"
     inkscape:current-layer="svg3" />
  <path
     fill="#ffffff"
     stroke="#000000"
     stroke-width="2"
     stroke-miterlimit="10"
     d="m 63,8 v 48 a 7,7 0 0 1 -7,7 H 8 a 7,7 0 0 1 -7,-7 V 9 A 7,7 0 0 1 8,1 H 56 A 7,7 0 0 1 63,8 Z M 47,17 H 32 v 15 h 15 z"
     id="path1" />
  <path
     d="M 47,17 H 32 v 15 h 15 z"
     id="path2"
     style="stroke-width:1" />
  <path
     fill="none"
     stroke="#000000"
     stroke-width="2"
     stroke-miterlimit="10"
     d="M 47,63 V 32 m 0,-15 V 1 M 32,63 V 32 m 0,-15 V 1 m -16,0 V 63 M 47,32 h 16 m -31,0 H 1 M 63,47 H 1 M 63,16 H 1"
     id="path3" />
</svg>
